# xmcd
#
# Track frame offsets:
#   150
#   14070
#   28026
#   40322
#   60759
#   73257
#   89402
#   111105
#   129522
#   148651
#   165356
#   186552
#   201937
#   219799
#   237312
#   254753
#
# Disc length: 3624 seconds
#
# Revision: 2
# Processed by: cddbd v1.5.2PL0 Copyright (c) Steve Scherf et al.
# Submitted via: Media_Universe 3.0
#
DISCID=ed0e2610
DTITLE=Cliff Richard - Cliff Richard - The Collection [Disc 2]
DYEAR=2010
DGENRE=Pop
TTITLE0=Cliff Richard - Will You Love Me Tomorrow
TTITLE1=Cliff Richard - Abraham Martin And John
TTITLE2=Cliff Richard - Take Me High
TTITLE3=Cliff Richard - Amazing Grace
TTITLE4=Cliff Richard - Travellin' Light
TTITLE5=Cliff Richard - Devil Woman
TTITLE6=Cliff Richard - Hey Mr Dream Maker
TTITLE7=Cliff Richard - Green Light
TTITLE8=Cliff Richard - We Don't Talk Anymore
TTITLE9=Cliff Richard - A Little In Love
TTITLE10=Cliff Richard - Once In A While
TTITLE11=Cliff Richard - The Only Way Out
TTITLE12=Cliff Richard - Baby You're Dynamite
TTITLE13=Cliff Richard - Some People
TTITLE14=Cliff Richard - Joanna
TTITLE15=Cliff Richard - Can't Keep This Feeling In
EXTD=
EXTT0=
EXTT1=
EXTT2=
EXTT3=
EXTT4=
EXTT5=
EXTT6=
EXTT7=
EXTT8=
EXTT9=
EXTT10=
EXTT11=
EXTT12=
EXTT13=
EXTT14=
EXTT15=
PLAYORDER=
